<svg xmlns="http://www.w3.org/2000/svg" width="375" viewBox="0 0 375 375" height="375" version="1.0"><path fill="#361D06" d="M 126.179688 101.933594 C 128.753906 94.746094 137.992188 91.363281 144.734375 96.460938 C 146.539062 97.832031 147.851562 99.574219 148.667969 101.691406 C 153.785156 100.296875 159.492188 102.992188 161.390625 108.195312 C 162.140625 108.191406 162.878906 108.296875 163.605469 108.503906 C 164.328125 108.710938 165.007812 109.015625 165.644531 109.417969 C 166.277344 109.820312 166.847656 110.304688 167.34375 110.867188 C 167.84375 111.429688 168.25 112.054688 168.570312 112.734375 C 169.007812 112.398438 169.46875 112.097656 169.957031 111.839844 C 170.445312 111.582031 170.949219 111.367188 171.472656 111.195312 C 171.996094 111.023438 172.53125 110.898438 173.078125 110.816406 C 173.625 110.738281 174.171875 110.703125 174.722656 110.71875 C 175.273438 110.730469 175.820312 110.792969 176.363281 110.898438 C 176.902344 111.007812 177.429688 111.160156 177.945312 111.355469 C 178.460938 111.554688 178.957031 111.792969 179.429688 112.074219 C 179.902344 112.355469 180.347656 112.675781 180.769531 113.035156 C 181.789062 112.402344 182.875 111.921875 184.03125 111.589844 C 185.183594 111.257812 186.359375 111.089844 187.5625 111.082031 C 188.761719 111.074219 189.941406 111.230469 191.097656 111.550781 C 192.257812 111.867188 193.347656 112.335938 194.378906 112.957031 C 195.117188 112.339844 195.933594 111.84375 196.824219 111.472656 C 197.714844 111.097656 198.640625 110.863281 199.601562 110.765625 C 200.5625 110.667969 201.515625 110.714844 202.460938 110.902344 C 203.410156 111.089844 204.308594 111.414062 205.160156 111.871094 C 207.074219 109.652344 210.046875 109.371094 212.335938 110.5 L 213.132812 108.140625 C 217.46875 98.269531 230.257812 105.691406 223.617188 114.546875 L 226.375 113.402344 C 226.582031 113.320312 226.789062 113.320312 226.992188 113.40625 C 227.199219 113.492188 227.34375 113.636719 227.429688 113.84375 L 228.742188 117.007812 C 228.824219 117.210938 228.824219 117.417969 228.738281 117.625 C 228.652344 117.828125 228.507812 117.972656 228.300781 118.058594 L 227.578125 118.359375 C 232.75 121.378906 237.914062 127.484375 240.910156 134.894531 L 259.867188 182.097656 C 262.511719 188.683594 262.304688 194.742188 258.304688 199.183594 C 259.816406 205.253906 245.804688 211.023438 240.429688 213.238281 L 239.941406 213.4375 L 239.902344 213.453125 C 234.542969 215.675781 220.078125 221.824219 216.777344 216.355469 C 210.808594 216.035156 206.367188 211.898438 203.578125 205.378906 L 187.53125 167.894531 L 171.484375 205.378906 C 168.691406 211.898438 164.253906 216.035156 158.285156 216.355469 C 154.980469 221.824219 140.515625 215.675781 135.15625 213.453125 L 135.117188 213.4375 L 134.632812 213.238281 C 129.257812 211.023438 115.253906 205.253906 116.765625 199.183594 C 112.757812 194.742188 112.546875 188.683594 115.191406 182.097656 L 134.148438 134.894531 L 134.164062 134.855469 C 133.746094 134.902344 133.324219 134.917969 132.902344 134.910156 C 131.660156 134.875 130.476562 134.601562 129.347656 134.089844 C 128.667969 134.296875 127.976562 134.4375 127.269531 134.519531 C 126.5625 134.605469 125.855469 134.625 125.148438 134.578125 C 124.4375 134.535156 123.738281 134.429688 123.046875 134.265625 C 122.355469 134.097656 121.6875 133.871094 121.035156 133.582031 C 120.386719 133.296875 119.765625 132.957031 119.179688 132.558594 C 118.589844 132.164062 118.039062 131.71875 117.527344 131.226562 C 117.019531 130.730469 116.554688 130.199219 116.140625 129.621094 C 115.726562 129.046875 115.363281 128.4375 115.058594 127.800781 C 114.75 127.160156 114.5 126.496094 114.3125 125.8125 C 114.121094 125.128906 113.996094 124.433594 113.929688 123.730469 C 113.863281 123.023438 113.859375 122.316406 113.921875 121.609375 C 113.980469 120.902344 114.101562 120.207031 114.285156 119.519531 C 114.46875 118.835938 114.710938 118.171875 115.015625 117.527344 C 115.316406 116.886719 115.671875 116.277344 116.082031 115.695312 C 116.492188 115.117188 116.953125 114.578125 117.457031 114.082031 C 117.964844 113.585938 118.507812 113.132812 119.097656 112.734375 C 117.140625 108.023438 120.339844 102.039062 126.179688 101.941406"/><path fill="#F9B32F" d="M 137.429688 207.949219 C 142.238281 209.851562 147.234375 212.015625 152.121094 213.746094 C 160.710938 216.792969 166.570312 212.75 170 204.75 L 178.125 185.765625 C 158.703125 182.359375 140.777344 174.640625 124.472656 163.324219 L 116.691406 182.699219 C 113.4375 190.777344 114.726562 197.769531 122.957031 201.6875 C 127.714844 203.949219 132.394531 205.78125 137.429688 207.949219"/><path fill="#F1892D" d="M 128.96875 166.328125 C 127.457031 165.355469 125.957031 164.355469 124.472656 163.324219 L 116.691406 182.699219 C 113.4375 190.777344 114.726562 197.769531 122.957031 201.6875 C 127.523438 203.859375 132.03125 205.632812 136.824219 207.691406 C 127.011719 203.230469 117.101562 195.550781 121.722656 184.160156 Z M 141.601562 209.636719 L 143.027344 210.214844 C 142.574219 210.015625 142.117188 209.820312 141.601562 209.636719 Z M 141.601562 209.636719"/><path fill="#C5C4BF" d="M 171.925781 169.308594 C 170.109375 169.402344 168.339844 169.171875 166.609375 168.609375 C 164.882812 168.050781 163.3125 167.199219 161.898438 166.054688 C 150.570312 161.925781 139.914062 156.484375 129.929688 149.730469 L 125.09375 161.789062 C 141.421875 173.152344 159.316406 180.886719 178.777344 184.242188 L 183.917969 172.207031 C 179.914062 171.410156 175.796875 170.410156 171.917969 169.308594"/><path fill="#999" d="M 134.507812 152.691406 C 132.964844 151.734375 131.441406 150.75 129.929688 149.730469 L 125.09375 161.789062 C 126.578125 162.820312 128.074219 163.828125 129.589844 164.808594 Z M 171.925781 169.300781 C 170.109375 169.398438 168.339844 169.164062 166.609375 168.605469 C 164.882812 168.042969 163.3125 167.191406 161.898438 166.050781 C 159.078125 165.027344 156.300781 163.917969 153.570312 162.726562 C 157.457031 172.34375 167.910156 176.722656 179.078125 171.152344 C 176.660156 170.589844 174.25 169.964844 171.925781 169.308594 Z M 171.925781 169.300781"/><path fill="#F5E3B9" d="M 159.660156 138.117188 C 160.371094 138.90625 159.167969 139.988281 158.449219 139.195312 C 157.496094 138.175781 156.792969 137.011719 156.332031 135.695312 C 156.085938 135.90625 155.855469 136.132812 155.640625 136.375 C 155.421875 136.613281 155.21875 136.867188 155.035156 137.132812 C 154.847656 137.398438 154.679688 137.675781 154.527344 137.960938 C 154.375 138.25 154.242188 138.542969 154.125 138.847656 C 154.007812 139.148438 153.914062 139.457031 153.835938 139.773438 C 153.757812 140.085938 153.699219 140.40625 153.660156 140.726562 C 153.621094 141.050781 153.601562 141.371094 153.601562 141.695312 C 153.605469 142.019531 153.625 142.34375 153.664062 142.664062 C 153.707031 142.988281 153.765625 143.304688 153.84375 143.617188 C 153.925781 143.933594 154.023438 144.242188 154.140625 144.542969 C 154.257812 144.84375 154.394531 145.140625 154.546875 145.425781 C 154.703125 145.710938 154.871094 145.984375 155.058594 146.25 C 155.246094 146.515625 155.449219 146.765625 155.667969 147.007812 C 155.886719 147.246094 156.121094 147.472656 156.367188 147.683594 C 156.613281 147.894531 156.871094 148.089844 157.140625 148.269531 C 157.410156 148.449219 157.691406 148.613281 157.980469 148.757812 C 159.074219 149.300781 160.230469 149.578125 161.453125 149.589844 C 162.515625 149.589844 162.503906 151.210938 161.453125 151.199219 C 160.484375 151.191406 159.542969 151.039062 158.621094 150.746094 C 158.46875 151.246094 158.347656 151.757812 158.253906 152.273438 C 158.164062 152.792969 158.101562 153.3125 158.074219 153.835938 C 158.042969 154.363281 158.046875 154.886719 158.082031 155.410156 C 158.113281 155.933594 158.179688 156.453125 158.277344 156.972656 C 158.371094 157.488281 158.5 157.996094 158.65625 158.496094 C 158.8125 159 159 159.488281 159.214844 159.96875 C 159.433594 160.445312 159.675781 160.910156 159.949219 161.359375 C 160.21875 161.8125 160.519531 162.242188 160.84375 162.65625 C 161.164062 163.070312 161.511719 163.464844 161.882812 163.835938 C 162.253906 164.207031 162.648438 164.558594 163.058594 164.882812 C 163.472656 165.207031 163.902344 165.507812 164.351562 165.78125 C 164.800781 166.054688 165.265625 166.300781 165.742188 166.519531 C 166.222656 166.738281 166.710938 166.929688 167.210938 167.089844 C 167.714844 167.25 168.222656 167.378906 168.738281 167.476562 C 169.257812 167.574219 169.777344 167.644531 170.300781 167.679688 C 170.828125 167.714844 171.351562 167.722656 171.878906 167.695312 C 171.945312 167.683594 172.011719 167.683594 172.078125 167.695312 C 173.84375 167.578125 175.515625 167.121094 177.097656 166.328125 C 178.679688 165.535156 180.046875 164.46875 181.199219 163.125 C 180.578125 163.152344 179.960938 163.125 179.347656 163.050781 C 178.289062 162.921875 178.484375 161.316406 179.542969 161.445312 C 180.570312 161.578125 181.589844 161.542969 182.605469 161.347656 C 182.722656 161.285156 182.851562 161.257812 182.984375 161.265625 C 189.355469 159.757812 192.835938 151.851562 188.382812 146.035156 C 187.472656 144.847656 186.347656 143.921875 185.003906 143.261719 C 184.050781 142.789062 184.769531 141.34375 185.722656 141.816406 C 186.722656 142.308594 187.628906 142.9375 188.445312 143.699219 C 189.136719 143.160156 189.71875 142.523438 190.199219 141.789062 C 190.679688 141.054688 191.027344 140.261719 191.242188 139.410156 C 191.457031 138.5625 191.53125 137.699219 191.460938 136.828125 C 191.390625 135.953125 191.179688 135.113281 190.828125 134.3125 C 190.40625 133.339844 191.886719 132.699219 192.3125 133.664062 C 192.746094 134.667969 193.007812 135.710938 193.085938 136.800781 C 193.640625 136.9375 194.203125 137.015625 194.773438 137.03125 C 195.34375 137.046875 195.910156 137.003906 196.472656 136.898438 C 197.035156 136.796875 197.578125 136.632812 198.105469 136.414062 C 198.632812 136.191406 199.132812 135.921875 199.601562 135.59375 C 200.070312 135.269531 200.496094 134.894531 200.886719 134.480469 C 201.277344 134.0625 201.617188 133.609375 201.910156 133.117188 C 202.203125 132.628906 202.441406 132.113281 202.621094 131.570312 C 202.804688 131.03125 202.929688 130.476562 202.992188 129.910156 C 203.011719 129.628906 203.148438 129.421875 203.398438 129.292969 C 203.5625 129.203125 203.734375 129.175781 203.917969 129.207031 C 204.246094 129.257812 204.578125 129.289062 204.910156 129.296875 C 205.238281 129.308594 205.570312 129.296875 205.902344 129.265625 C 206.234375 129.238281 206.558594 129.183594 206.882812 129.113281 C 207.207031 129.042969 207.527344 128.953125 207.839844 128.839844 C 208.152344 128.730469 208.457031 128.601562 208.753906 128.453125 C 209.050781 128.304688 209.339844 128.136719 209.613281 127.953125 C 209.890625 127.769531 210.15625 127.570312 210.40625 127.355469 C 210.65625 127.136719 210.894531 126.90625 211.117188 126.660156 C 211.339844 126.414062 211.546875 126.15625 211.738281 125.886719 C 211.929688 125.613281 212.105469 125.332031 212.257812 125.039062 C 212.414062 124.746094 212.554688 124.445312 212.671875 124.136719 C 212.789062 123.828125 212.890625 123.511719 212.96875 123.191406 C 213.046875 122.867188 213.109375 122.542969 213.148438 122.214844 C 213.1875 121.882812 213.203125 121.554688 213.203125 121.222656 C 213.203125 120.890625 213.179688 120.558594 213.136719 120.230469 C 213.09375 119.902344 213.03125 119.578125 212.949219 119.257812 C 212.933594 119.203125 212.921875 119.152344 212.914062 119.097656 C 212.882812 118.863281 212.945312 118.664062 213.109375 118.492188 C 213.285156 118.261719 213.4375 118.015625 213.566406 117.753906 C 213.691406 117.492188 213.792969 117.222656 213.863281 116.941406 C 213.9375 116.660156 213.980469 116.375 213.996094 116.082031 C 214.011719 115.792969 214 115.503906 213.957031 115.214844 C 213.914062 114.929688 213.84375 114.648438 213.746094 114.375 C 213.644531 114.101562 213.519531 113.839844 213.371094 113.59375 C 213.21875 113.34375 213.042969 113.113281 212.847656 112.902344 C 212.648438 112.6875 212.433594 112.496094 212.195312 112.324219 C 211.960938 112.15625 211.710938 112.011719 211.445312 111.890625 C 211.179688 111.769531 210.90625 111.679688 210.621094 111.613281 C 210.335938 111.550781 210.050781 111.511719 209.757812 111.503906 C 209.46875 111.496094 209.179688 111.519531 208.894531 111.570312 C 208.605469 111.621094 208.328125 111.699219 208.058594 111.804688 C 207.785156 111.910156 207.527344 112.042969 207.285156 112.199219 C 207.039062 112.359375 206.8125 112.539062 206.605469 112.742188 C 206.398438 112.945312 206.210938 113.167969 206.046875 113.40625 C 205.9375 113.585938 205.777344 113.699219 205.574219 113.75 C 205.347656 113.8125 205.132812 113.777344 204.9375 113.640625 C 204.25 113.195312 203.507812 112.863281 202.71875 112.644531 C 201.929688 112.425781 201.121094 112.328125 200.300781 112.355469 C 199.480469 112.382812 198.683594 112.53125 197.910156 112.800781 C 197.136719 113.074219 196.421875 113.453125 195.761719 113.941406 C 196.171875 114.269531 196.554688 114.621094 196.921875 114.996094 C 197.660156 115.753906 196.507812 116.878906 195.761719 116.117188 C 195.472656 115.824219 195.167969 115.542969 194.847656 115.28125 C 194.527344 115.019531 194.191406 114.777344 193.84375 114.550781 C 193.5 114.324219 193.140625 114.117188 192.769531 113.929688 C 192.398438 113.746094 192.023438 113.578125 191.632812 113.433594 C 191.246094 113.289062 190.851562 113.164062 190.449219 113.0625 C 190.046875 112.960938 189.640625 112.878906 189.230469 112.820312 C 188.820312 112.761719 188.410156 112.726562 187.996094 112.714844 C 187.582031 112.703125 187.167969 112.710938 186.753906 112.742188 C 186.34375 112.777344 185.933594 112.828125 185.523438 112.90625 C 185.117188 112.984375 184.714844 113.082031 184.320312 113.203125 C 183.921875 113.324219 183.535156 113.464844 183.15625 113.628906 C 182.773438 113.792969 182.402344 113.976562 182.042969 114.179688 C 181.679688 114.382812 181.332031 114.605469 180.996094 114.847656 C 180.660156 115.085938 180.339844 115.347656 180.03125 115.625 C 179.722656 115.898438 179.429688 116.191406 179.152344 116.5 C 178.878906 116.808594 178.621094 117.132812 178.378906 117.46875 C 177.773438 118.328125 176.449219 117.394531 177.0625 116.53125 C 177.734375 115.59375 178.515625 114.753906 179.410156 114.023438 C 179.148438 113.824219 178.878906 113.636719 178.597656 113.46875 C 178.3125 113.304688 178.023438 113.152344 177.722656 113.019531 C 177.421875 112.890625 177.113281 112.777344 176.796875 112.683594 C 176.484375 112.585938 176.164062 112.511719 175.839844 112.457031 C 175.515625 112.402344 175.1875 112.367188 174.859375 112.351562 C 174.53125 112.335938 174.203125 112.339844 173.875 112.367188 C 173.546875 112.390625 173.222656 112.4375 172.902344 112.5 C 172.578125 112.566406 172.261719 112.648438 171.949219 112.753906 C 171.636719 112.855469 171.332031 112.976562 171.035156 113.117188 C 170.738281 113.257812 170.453125 113.417969 170.175781 113.59375 C 169.898438 113.769531 169.632812 113.960938 169.378906 114.171875 C 169.125 114.378906 168.882812 114.601562 168.65625 114.839844 C 168.429688 115.078125 168.21875 115.328125 168.023438 115.589844 C 167.828125 115.855469 167.648438 116.128906 167.484375 116.414062 C 167.324219 116.699219 167.179688 116.996094 167.054688 117.296875 C 166.929688 117.601562 166.820312 117.910156 166.734375 118.226562 C 166.722656 118.277344 166.710938 118.324219 166.695312 118.371094 C 166.671875 118.460938 166.652344 118.546875 166.632812 118.632812 C 166.375 119.792969 166.375 120.949219 166.632812 122.105469 C 166.863281 123.140625 165.289062 123.488281 165.058594 122.453125 C 164.824219 121.402344 164.765625 120.34375 164.886719 119.277344 C 160.882812 120.851562 158.121094 123.664062 157.289062 127.757812 C 156.585938 131.152344 157.289062 135.273438 159.320312 137.722656 C 159.410156 137.832031 159.527344 137.964844 159.667969 138.121094"/><path fill="#C5C4BF" d="M 214.808594 121.898438 L 226.9375 116.878906 L 226.238281 115.203125 L 220.628906 117.527344 C 220.570312 117.558594 220.511719 117.582031 220.453125 117.597656 L 214.746094 119.980469 C 214.835938 120.625 214.863281 121.265625 214.824219 121.914062"/><path fill="#C5C4BF" d="M 217.945312 116.894531 L 219.835938 116.113281 C 230.046875 107.796875 218.023438 100.339844 214.613281 108.824219 L 213.730469 111.457031 C 214.734375 112.363281 215.339844 113.480469 215.542969 114.816406 C 215.832031 114.820312 216.113281 114.875 216.386719 114.976562 C 216.65625 115.082031 216.902344 115.226562 217.121094 115.417969 C 217.34375 115.609375 217.523438 115.828125 217.660156 116.082031 C 217.800781 116.339844 217.894531 116.609375 217.9375 116.894531"/><path fill="#FFF" d="M 215.191406 118.035156 L 216.222656 117.609375 C 216.234375 117.574219 216.246094 117.542969 216.261719 117.515625 C 216.316406 117.398438 216.339844 117.273438 216.332031 117.148438 C 216.320312 117.019531 216.285156 116.902344 216.214844 116.792969 C 216.148438 116.683594 216.058594 116.597656 215.945312 116.53125 C 215.835938 116.46875 215.714844 116.4375 215.585938 116.433594 C 215.511719 116.980469 215.382812 117.515625 215.191406 118.035156"/><path fill="#F9B32F" d="M 186.652344 165.84375 L 185.109375 162.242188 C 184.578125 162.46875 184.027344 162.652344 183.464844 162.792969 C 182.535156 164.1875 181.398438 165.386719 180.054688 166.390625 C 178.714844 167.394531 177.242188 168.148438 175.640625 168.644531 C 178.597656 169.417969 181.503906 170.082031 184.574219 170.691406 Z M 186.652344 165.84375"/><path fill="#F1892D" d="M 186.652344 165.84375 L 185.109375 162.242188 C 184.578125 162.46875 184.027344 162.652344 183.464844 162.792969 C 182.535156 164.1875 181.398438 165.386719 180.054688 166.390625 C 178.714844 167.394531 177.242188 168.148438 175.640625 168.644531 C 177.492188 169.132812 179.324219 169.574219 181.191406 169.984375 C 183.148438 168.78125 184.96875 167.402344 186.652344 165.84375"/><path fill="#F9B32F" d="M 196.933594 185.765625 L 205.070312 204.75 C 208.496094 212.75 214.359375 216.792969 222.949219 213.746094 C 227.835938 212.015625 232.832031 209.851562 237.636719 207.949219 C 242.671875 205.78125 247.351562 203.949219 252.113281 201.6875 C 260.34375 197.761719 261.621094 190.777344 258.378906 182.699219 L 250.597656 163.324219 C 234.265625 174.644531 216.390625 182.351562 196.945312 185.765625"/><path fill="#F1892D" d="M 228.128906 211.785156 C 231.320312 210.519531 234.515625 209.179688 237.628906 207.945312 C 242.664062 205.777344 247.34375 203.941406 252.101562 201.679688 C 260.335938 197.753906 261.613281 190.769531 258.367188 182.691406 L 250.585938 163.320312 C 248.941406 164.457031 247.28125 165.5625 245.605469 166.625 L 251.300781 181.121094 C 258.167969 198.601562 245.125 204.390625 228.128906 211.789062"/><path fill="#C5C4BF" d="M 191.132812 172.207031 L 196.273438 184.242188 C 215.710938 180.890625 233.671875 173.144531 249.957031 161.789062 L 245.121094 149.730469 C 236.964844 155.246094 228.34375 159.894531 219.253906 163.679688 C 210.164062 167.464844 200.785156 170.304688 191.121094 172.207031"/><path fill="#999" d="M 245.007812 165.105469 C 246.675781 164.035156 248.332031 162.929688 249.972656 161.78125 L 245.132812 149.722656 C 243.507812 150.816406 241.867188 151.875 240.21875 152.898438 Z M 245.007812 165.105469"/><path fill="#F9B32F" d="M 186.554688 161.507812 L 190.484375 170.691406 C 200.160156 168.808594 209.546875 165.972656 218.644531 162.1875 C 227.742188 158.398438 236.363281 153.738281 244.511719 148.199219 L 239.414062 135.5 C 236.351562 127.929688 230.890625 121.710938 225.652344 119.15625 L 214.5 123.769531 C 214.355469 124.304688 214.164062 124.824219 213.929688 125.332031 C 213.695312 125.835938 213.417969 126.316406 213.097656 126.773438 C 212.78125 127.226562 212.425781 127.652344 212.03125 128.050781 C 211.640625 128.445312 211.214844 128.804688 210.761719 129.125 C 210.308594 129.449219 209.828125 129.730469 209.328125 129.96875 C 208.824219 130.207031 208.304688 130.402344 207.765625 130.554688 C 207.230469 130.703125 206.683594 130.804688 206.132812 130.863281 C 205.578125 130.917969 205.023438 130.925781 204.464844 130.886719 C 204.339844 131.507812 204.15625 132.113281 203.910156 132.699219 C 203.667969 133.289062 203.367188 133.84375 203.011719 134.371094 C 202.65625 134.898438 202.253906 135.386719 201.800781 135.835938 C 201.351562 136.28125 200.859375 136.679688 200.328125 137.03125 C 199.796875 137.382812 199.238281 137.679688 198.648438 137.917969 C 198.058594 138.160156 197.453125 138.339844 196.828125 138.460938 C 196.203125 138.582031 195.570312 138.636719 194.9375 138.632812 C 194.300781 138.628906 193.667969 138.5625 193.046875 138.4375 C 192.910156 139.699219 192.535156 140.886719 191.925781 142.003906 C 191.316406 143.117188 190.515625 144.074219 189.527344 144.875 C 193.226562 149.542969 192.820312 156.785156 187.546875 160.808594 C 187.222656 161.058594 186.886719 161.285156 186.542969 161.5"/><path fill="#F1892D" d="M 239.613281 151.386719 C 241.261719 150.363281 242.894531 149.304688 244.511719 148.210938 L 239.414062 135.511719 C 236.351562 127.941406 230.890625 121.722656 225.652344 119.167969 L 214.5 123.769531 C 214.355469 124.304688 214.164062 124.824219 213.929688 125.332031 C 213.695312 125.835938 213.417969 126.316406 213.097656 126.773438 C 212.78125 127.226562 212.425781 127.652344 212.03125 128.050781 C 211.640625 128.445312 211.214844 128.804688 210.761719 129.125 C 210.308594 129.449219 209.828125 129.730469 209.328125 129.96875 C 208.824219 130.207031 208.304688 130.402344 207.765625 130.554688 C 207.230469 130.703125 206.683594 130.804688 206.132812 130.863281 C 205.578125 130.917969 205.023438 130.925781 204.464844 130.886719 C 204.339844 131.507812 204.15625 132.113281 203.910156 132.699219 C 203.667969 133.289062 203.367188 133.84375 203.011719 134.371094 C 202.65625 134.898438 202.253906 135.386719 201.800781 135.835938 C 201.351562 136.28125 200.859375 136.679688 200.328125 137.03125 C 199.796875 137.382812 199.238281 137.679688 198.648438 137.917969 C 198.058594 138.160156 197.453125 138.339844 196.828125 138.460938 C 196.203125 138.582031 195.570312 138.636719 194.9375 138.632812 C 194.300781 138.628906 193.667969 138.5625 193.046875 138.4375 C 192.910156 139.699219 192.535156 140.886719 191.925781 142.003906 C 191.316406 143.117188 190.515625 144.074219 189.527344 144.875 C 189.527344 144.875 200.820312 146.292969 206.925781 134.589844 C 212.898438 133.21875 215.304688 130.964844 219.328125 126.769531 C 223.679688 122.238281 230.410156 128.359375 232.421875 133.113281 Z M 239.613281 151.386719"/><path fill="#F9B32F" d="M 136.117188 134.429688 L 135.660156 135.5 L 130.546875 148.199219 C 139.570312 154.332031 149.164062 159.386719 159.328125 163.363281 C 158.628906 162.425781 158.054688 161.421875 157.597656 160.347656 C 157.140625 159.273438 156.816406 158.160156 156.625 157.011719 C 156.433594 155.859375 156.378906 154.703125 156.460938 153.539062 C 156.542969 152.378906 156.761719 151.238281 157.117188 150.128906 C 156.757812 149.941406 156.414062 149.734375 156.085938 149.503906 C 155.753906 149.277344 155.441406 149.027344 155.140625 148.757812 C 154.84375 148.488281 154.5625 148.203125 154.300781 147.898438 C 154.039062 147.59375 153.796875 147.273438 153.574219 146.9375 C 153.351562 146.601562 153.152344 146.253906 152.972656 145.894531 C 152.796875 145.535156 152.640625 145.164062 152.511719 144.785156 C 152.378906 144.40625 152.273438 144.019531 152.191406 143.625 C 152.109375 143.230469 152.050781 142.835938 152.019531 142.433594 C 151.988281 142.035156 151.980469 141.632812 152 141.230469 C 152.019531 140.832031 152.0625 140.433594 152.132812 140.035156 C 152.203125 139.640625 152.296875 139.25 152.414062 138.867188 C 152.53125 138.484375 152.675781 138.109375 152.839844 137.742188 C 153.007812 137.375 153.195312 137.023438 153.40625 136.679688 C 153.617188 136.339844 153.847656 136.011719 154.101562 135.699219 C 154.355469 135.386719 154.625 135.089844 154.914062 134.8125 C 155.203125 134.53125 155.511719 134.273438 155.832031 134.03125 C 155.175781 131.390625 155.242188 128.765625 156.035156 126.160156 C 155.292969 126.398438 154.535156 126.523438 153.757812 126.539062 C 152.980469 126.554688 152.214844 126.457031 151.464844 126.246094 C 150.71875 126.039062 150.015625 125.726562 149.359375 125.308594 C 148.703125 124.890625 148.121094 124.390625 147.609375 123.800781 C 146.898438 124.480469 146.089844 125.003906 145.179688 125.378906 C 144.273438 125.753906 143.324219 125.949219 142.34375 125.964844 C 142.316406 126.902344 142.148438 127.8125 141.84375 128.699219 C 141.535156 129.585938 141.105469 130.40625 140.550781 131.160156 C 139.996094 131.917969 139.339844 132.570312 138.585938 133.128906 C 137.828125 133.683594 137.007812 134.117188 136.121094 134.421875"/><path fill="#F1892D" d="M 136.117188 134.429688 L 135.660156 135.5 L 130.546875 148.199219 C 132.058594 149.222656 133.585938 150.214844 135.121094 151.175781 L 138.648438 142.492188 C 141.808594 135.335938 148.238281 136.175781 148.238281 136.175781 C 146.34375 145.238281 152.351562 149.4375 152.351562 149.4375 C 151.683594 153.574219 151.917969 157.359375 152.859375 160.652344 C 154.984375 161.605469 157.140625 162.511719 159.328125 163.371094 C 158.628906 162.433594 158.054688 161.429688 157.597656 160.355469 C 157.140625 159.28125 156.816406 158.171875 156.625 157.019531 C 156.433594 155.871094 156.378906 154.714844 156.460938 153.550781 C 156.542969 152.386719 156.761719 151.25 157.117188 150.136719 C 156.757812 149.953125 156.414062 149.742188 156.085938 149.515625 C 155.753906 149.285156 155.441406 149.035156 155.140625 148.765625 C 154.84375 148.496094 154.5625 148.210938 154.300781 147.90625 C 154.039062 147.601562 153.796875 147.28125 153.574219 146.945312 C 153.351562 146.613281 153.152344 146.265625 152.972656 145.902344 C 152.796875 145.542969 152.640625 145.171875 152.511719 144.792969 C 152.378906 144.414062 152.273438 144.027344 152.191406 143.632812 C 152.109375 143.242188 152.050781 142.84375 152.019531 142.445312 C 151.988281 142.042969 151.980469 141.640625 152 141.242188 C 152.019531 140.839844 152.0625 140.441406 152.132812 140.046875 C 152.203125 139.648438 152.296875 139.261719 152.414062 138.875 C 152.53125 138.492188 152.675781 138.117188 152.839844 137.75 C 153.007812 137.386719 153.195312 137.03125 153.40625 136.6875 C 153.617188 136.347656 153.847656 136.019531 154.101562 135.707031 C 154.355469 135.394531 154.625 135.097656 154.914062 134.820312 C 155.203125 134.542969 155.511719 134.28125 155.832031 134.042969 C 155.175781 131.398438 155.242188 128.773438 156.035156 126.167969 C 155.292969 126.40625 154.53125 126.53125 153.753906 126.546875 C 152.976562 126.5625 152.214844 126.464844 151.464844 126.253906 C 150.714844 126.042969 150.011719 125.726562 149.355469 125.3125 C 148.699219 124.894531 148.117188 124.390625 147.609375 123.800781 C 146.898438 124.480469 146.089844 125.003906 145.179688 125.378906 C 144.273438 125.753906 143.324219 125.949219 142.34375 125.964844 C 142.316406 126.902344 142.148438 127.8125 141.84375 128.699219 C 141.535156 129.585938 141.105469 130.40625 140.550781 131.160156 C 139.996094 131.917969 139.339844 132.570312 138.585938 133.128906 C 137.828125 133.683594 137.007812 134.117188 136.121094 134.421875"/><path fill="#F5E3B9" d="M 127.117188 106.5625 C 127.167969 107.621094 125.558594 107.703125 125.5 106.644531 C 125.445312 105.605469 125.519531 104.578125 125.726562 103.5625 C 121.300781 103.929688 118.882812 108.851562 120.789062 112.539062 C 120.835938 112.601562 120.871094 112.671875 120.902344 112.75 C 121.289062 113.425781 121.785156 114.007812 122.390625 114.5 C 123.207031 115.171875 122.179688 116.414062 121.363281 115.746094 C 120.796875 115.28125 120.300781 114.746094 119.878906 114.148438 C 119.40625 114.480469 118.964844 114.851562 118.550781 115.257812 C 118.140625 115.667969 117.765625 116.105469 117.429688 116.578125 C 117.089844 117.046875 116.796875 117.542969 116.542969 118.0625 C 116.285156 118.582031 116.078125 119.121094 115.914062 119.675781 C 115.75 120.230469 115.632812 120.796875 115.5625 121.371094 C 115.492188 121.945312 115.472656 122.519531 115.5 123.097656 C 115.527344 123.675781 115.601562 124.25 115.722656 124.816406 C 115.847656 125.378906 116.015625 125.929688 116.230469 126.46875 C 116.445312 127.007812 116.707031 127.523438 117.007812 128.015625 C 117.308594 128.507812 117.652344 128.976562 118.03125 129.414062 C 118.410156 129.847656 118.824219 130.25 119.273438 130.621094 C 119.71875 130.988281 120.195312 131.316406 120.695312 131.601562 C 121.199219 131.890625 121.722656 132.136719 122.265625 132.335938 C 122.808594 132.539062 123.367188 132.691406 123.933594 132.800781 C 124.503906 132.90625 125.078125 132.96875 125.660156 132.980469 C 126.238281 132.992188 126.816406 132.953125 127.386719 132.871094 C 126.261719 131.96875 125.398438 130.859375 124.796875 129.546875 C 124.355469 128.589844 125.820312 127.914062 126.261719 128.878906 C 126.976562 130.445312 128.097656 131.621094 129.625 132.414062 C 129.71875 132.4375 129.804688 132.480469 129.882812 132.539062 C 130.585938 132.875 131.320312 133.097656 132.089844 133.207031 C 132.859375 133.316406 133.625 133.304688 134.394531 133.179688 C 135.160156 133.050781 135.890625 132.808594 136.582031 132.457031 C 137.273438 132.105469 137.898438 131.65625 138.453125 131.109375 C 139.003906 130.566406 139.464844 129.953125 139.828125 129.265625 C 140.191406 128.578125 140.445312 127.855469 140.585938 127.09375 C 140.722656 126.328125 140.746094 125.5625 140.648438 124.792969 C 140.550781 124.019531 140.339844 123.285156 140.015625 122.578125 C 139.578125 121.613281 141.042969 120.945312 141.484375 121.910156 C 141.847656 122.695312 142.09375 123.511719 142.226562 124.363281 C 142.621094 124.359375 143.015625 124.320312 143.40625 124.242188 C 143.796875 124.160156 144.175781 124.046875 144.542969 123.894531 C 144.910156 123.742188 145.261719 123.558594 145.59375 123.339844 C 145.925781 123.121094 146.234375 122.871094 146.519531 122.59375 C 146.804688 122.316406 147.058594 122.015625 147.285156 121.6875 C 147.511719 121.359375 147.703125 121.015625 147.863281 120.648438 C 148.023438 120.285156 148.144531 119.910156 148.230469 119.523438 C 148.320312 119.132812 148.367188 118.742188 148.378906 118.34375 C 148.402344 117.285156 150.019531 117.324219 149.992188 118.382812 C 149.957031 119.902344 149.511719 121.292969 148.65625 122.546875 C 148.894531 122.847656 149.160156 123.125 149.445312 123.378906 C 149.734375 123.632812 150.046875 123.855469 150.375 124.054688 C 150.707031 124.25 151.050781 124.414062 151.410156 124.546875 C 151.769531 124.679688 152.140625 124.777344 152.519531 124.84375 C 152.898438 124.910156 153.277344 124.941406 153.664062 124.933594 C 154.046875 124.929688 154.425781 124.890625 154.804688 124.816406 C 155.179688 124.742188 155.546875 124.632812 155.90625 124.492188 C 156.261719 124.351562 156.601562 124.179688 156.929688 123.972656 L 156.964844 123.953125 C 157.820312 122.363281 158.96875 121.023438 160.410156 119.933594 C 161.894531 118.824219 163.523438 117.988281 165.289062 117.425781 C 165.714844 116.113281 166.386719 114.945312 167.308594 113.921875 C 167.101562 113.351562 166.816406 112.824219 166.457031 112.339844 C 166.09375 111.851562 165.671875 111.425781 165.1875 111.0625 C 164.703125 110.699219 164.175781 110.414062 163.609375 110.203125 C 163.039062 109.992188 162.453125 109.863281 161.847656 109.824219 C 161.914062 110.167969 161.964844 110.515625 162 110.875 C 162.101562 111.929688 160.488281 112.085938 160.394531 111.027344 C 159.816406 104.921875 153.648438 101.605469 148.484375 103.441406 C 148.460938 103.453125 148.433594 103.460938 148.40625 103.46875 C 147.257812 103.894531 146.238281 104.527344 145.351562 105.367188 C 144.578125 106.097656 143.472656 104.925781 144.246094 104.195312 C 145.105469 103.378906 146.078125 102.726562 147.160156 102.238281 C 144.542969 95.476562 135.75 93.355469 130.339844 98.480469 C 129.027344 99.71875 128.101562 101.199219 127.5625 102.921875 C 127.554688 102.972656 127.539062 103.023438 127.519531 103.074219 C 127.183594 104.210938 127.050781 105.375 127.117188 106.5625"/><path fill="#361D06" d="M 215.578125 111.007812 L 216.824219 108.457031 C 216.964844 108.175781 217.152344 107.929688 217.390625 107.722656 C 217.625 107.511719 217.894531 107.359375 218.191406 107.257812 C 218.488281 107.15625 218.796875 107.113281 219.109375 107.132812 C 219.425781 107.152344 219.722656 107.234375 220.007812 107.371094 C 220.289062 107.507812 220.535156 107.695312 220.746094 107.933594 C 220.953125 108.167969 221.109375 108.4375 221.210938 108.734375 C 221.3125 109.03125 221.355469 109.335938 221.335938 109.652344 C 221.316406 109.964844 221.238281 110.265625 221.097656 110.546875 L 219.84375 113.117188 C 219.703125 113.398438 219.515625 113.644531 219.277344 113.851562 C 219.039062 114.058594 218.769531 114.210938 218.472656 114.3125 C 218.171875 114.410156 217.867188 114.449219 217.550781 114.429688 C 217.238281 114.40625 216.9375 114.328125 216.65625 114.1875 C 216.375 114.046875 216.128906 113.855469 215.921875 113.621094 C 215.714844 113.382812 215.5625 113.113281 215.460938 112.816406 C 215.359375 112.519531 215.320312 112.210938 215.34375 111.898438 C 215.363281 111.582031 215.445312 111.285156 215.585938 111.003906"/><path fill="#FFF" d="M 218.261719 109.203125 L 217.019531 111.746094 C 216.582031 112.652344 217.949219 113.304688 218.382812 112.410156 L 219.636719 109.839844 C 219.738281 109.648438 219.75 109.453125 219.683594 109.246094 C 219.613281 109.042969 219.480469 108.894531 219.28125 108.804688 C 219.085938 108.714844 218.886719 108.707031 218.6875 108.785156 C 218.484375 108.867188 218.34375 109.003906 218.261719 109.203125"/><path fill="#361D06" d="M 136.199219 99.402344 C 136.550781 99.402344 136.898438 99.433594 137.242188 99.503906 C 137.589844 99.570312 137.925781 99.671875 138.25 99.808594 C 138.574219 99.941406 138.886719 100.105469 139.175781 100.300781 C 139.46875 100.496094 139.742188 100.71875 139.992188 100.964844 C 140.238281 101.214844 140.460938 101.484375 140.65625 101.777344 C 140.855469 102.070312 141.019531 102.378906 141.152344 102.703125 C 141.289062 103.027344 141.390625 103.363281 141.460938 103.707031 C 141.527344 104.050781 141.5625 104.402344 141.5625 104.753906 C 141.5625 105.074219 141.535156 105.394531 141.476562 105.710938 C 141.363281 105.097656 141.148438 104.519531 140.832031 103.980469 C 140.515625 103.441406 140.117188 102.96875 139.636719 102.570312 C 139.152344 102.167969 138.617188 101.863281 138.027344 101.648438 C 137.441406 101.4375 136.832031 101.332031 136.207031 101.332031 C 135.578125 101.332031 134.972656 101.4375 134.382812 101.648438 C 133.792969 101.863281 133.257812 102.167969 132.773438 102.570312 C 132.292969 102.96875 131.894531 103.441406 131.578125 103.980469 C 131.261719 104.519531 131.046875 105.097656 130.933594 105.710938 C 130.875 105.394531 130.84375 105.074219 130.84375 104.753906 C 130.84375 104.402344 130.878906 104.054688 130.949219 103.710938 C 131.015625 103.363281 131.117188 103.03125 131.253906 102.707031 C 131.386719 102.382812 131.550781 102.074219 131.746094 101.78125 C 131.941406 101.488281 132.164062 101.21875 132.414062 100.96875 C 132.660156 100.722656 132.929688 100.5 133.222656 100.304688 C 133.515625 100.109375 133.824219 99.945312 134.148438 99.808594 C 134.472656 99.675781 134.808594 99.574219 135.152344 99.503906 C 135.496094 99.4375 135.847656 99.402344 136.199219 99.402344" fill-rule="evenodd"/><path fill="#361D06" d="M 118.070312 124.339844 C 117.933594 124.015625 117.828125 123.679688 117.757812 123.335938 C 117.6875 122.992188 117.652344 122.644531 117.648438 122.292969 C 117.644531 121.941406 117.675781 121.59375 117.742188 121.25 C 117.808594 120.902344 117.910156 120.570312 118.042969 120.242188 C 118.175781 119.917969 118.335938 119.609375 118.53125 119.316406 C 118.722656 119.019531 118.945312 118.75 119.191406 118.5 C 119.4375 118.25 119.707031 118.023438 120 117.828125 C 120.289062 117.628906 120.597656 117.464844 120.921875 117.328125 C 121.222656 117.199219 121.527344 117.097656 121.84375 117.023438 C 121.320312 117.367188 120.871094 117.792969 120.496094 118.292969 C 120.117188 118.792969 119.839844 119.34375 119.65625 119.945312 C 119.476562 120.542969 119.402344 121.15625 119.433594 121.78125 C 119.464844 122.40625 119.605469 123.007812 119.847656 123.582031 C 120.09375 124.160156 120.425781 124.679688 120.855469 125.136719 C 121.28125 125.597656 121.769531 125.972656 122.328125 126.257812 C 122.886719 126.546875 123.476562 126.730469 124.097656 126.808594 C 124.71875 126.890625 125.335938 126.863281 125.949219 126.726562 C 125.679688 126.902344 125.394531 127.054688 125.097656 127.179688 C 124.773438 127.316406 124.4375 127.421875 124.09375 127.492188 C 123.746094 127.5625 123.398438 127.601562 123.046875 127.601562 C 122.695312 127.605469 122.347656 127.574219 122 127.507812 C 121.65625 127.441406 121.320312 127.339844 120.992188 127.210938 C 120.667969 127.078125 120.355469 126.914062 120.0625 126.722656 C 119.769531 126.527344 119.496094 126.308594 119.246094 126.0625 C 118.996094 125.816406 118.769531 125.546875 118.574219 125.253906 C 118.375 124.964844 118.207031 124.65625 118.070312 124.332031" fill-rule="evenodd"/><path fill="#361D06" d="M 136.039062 129.855469 C 135.796875 129.960938 135.546875 130.039062 135.289062 130.089844 C 135.027344 130.140625 134.765625 130.164062 134.503906 130.15625 C 134.238281 130.148438 133.980469 130.113281 133.722656 130.050781 C 133.464844 129.988281 133.21875 129.894531 132.984375 129.777344 C 132.746094 129.660156 132.527344 129.519531 132.320312 129.351562 C 132.117188 129.183594 131.933594 129 131.769531 128.792969 C 131.605469 128.585938 131.464844 128.363281 131.351562 128.125 C 131.234375 127.886719 131.148438 127.640625 131.085938 127.382812 C 131.324219 127.734375 131.609375 128.03125 131.953125 128.28125 C 132.292969 128.53125 132.664062 128.710938 133.070312 128.832031 C 133.476562 128.949219 133.890625 128.992188 134.308594 128.964844 C 134.730469 128.9375 135.136719 128.839844 135.523438 128.671875 C 135.910156 128.503906 136.253906 128.273438 136.5625 127.984375 C 136.867188 127.691406 137.113281 127.359375 137.304688 126.980469 C 137.492188 126.605469 137.609375 126.207031 137.660156 125.789062 C 137.707031 125.367188 137.683594 124.953125 137.585938 124.542969 C 137.703125 124.722656 137.804688 124.914062 137.886719 125.113281 C 138.078125 125.550781 138.179688 126.007812 138.191406 126.484375 C 138.199219 126.960938 138.117188 127.425781 137.941406 127.867188 C 137.769531 128.3125 137.515625 128.707031 137.183594 129.050781 C 136.851562 129.398438 136.464844 129.664062 136.027344 129.855469" fill-rule="evenodd"/><path fill="#361D06" d="M 155.925781 121.433594 C 155.683594 121.539062 155.433594 121.617188 155.175781 121.667969 C 154.917969 121.71875 154.652344 121.742188 154.390625 121.734375 C 154.125 121.730469 153.867188 121.695312 153.609375 121.628906 C 153.351562 121.566406 153.105469 121.476562 152.871094 121.359375 C 152.632812 121.242188 152.414062 121.097656 152.207031 120.933594 C 152 120.765625 151.816406 120.578125 151.652344 120.371094 C 151.488281 120.164062 151.347656 119.941406 151.234375 119.707031 C 151.121094 119.46875 151.03125 119.21875 150.972656 118.964844 C 151.207031 119.3125 151.496094 119.613281 151.835938 119.863281 C 152.175781 120.109375 152.550781 120.292969 152.957031 120.414062 C 153.359375 120.53125 153.773438 120.574219 154.195312 120.546875 C 154.617188 120.519531 155.023438 120.421875 155.410156 120.253906 C 155.796875 120.085938 156.140625 119.855469 156.449219 119.5625 C 156.753906 119.273438 157 118.9375 157.191406 118.5625 C 157.378906 118.183594 157.496094 117.785156 157.542969 117.367188 C 157.59375 116.945312 157.566406 116.53125 157.46875 116.121094 C 157.589844 116.304688 157.6875 116.492188 157.773438 116.691406 C 157.964844 117.128906 158.066406 117.585938 158.074219 118.066406 C 158.082031 118.542969 158 119.003906 157.828125 119.449219 C 157.652344 119.890625 157.398438 120.285156 157.070312 120.628906 C 156.738281 120.976562 156.351562 121.242188 155.914062 121.433594" fill-rule="evenodd"/><path fill="#361D06" d="M 158.820312 128.347656 C 158.90625 128.003906 159.027344 127.675781 159.179688 127.359375 C 159.328125 127.042969 159.511719 126.742188 159.722656 126.460938 C 159.929688 126.179688 160.167969 125.921875 160.429688 125.6875 C 160.691406 125.449219 160.972656 125.242188 161.273438 125.0625 C 161.578125 124.882812 161.894531 124.734375 162.226562 124.617188 C 162.554688 124.5 162.894531 124.414062 163.246094 124.363281 C 163.59375 124.3125 163.941406 124.296875 164.292969 124.316406 C 164.644531 124.332031 164.992188 124.386719 165.332031 124.472656 C 165.644531 124.550781 165.949219 124.65625 166.238281 124.792969 C 165.613281 124.75 165 124.816406 164.394531 124.988281 C 163.792969 125.160156 163.238281 125.429688 162.730469 125.796875 C 162.222656 126.167969 161.792969 126.609375 161.441406 127.128906 C 161.089844 127.648438 160.835938 128.210938 160.679688 128.816406 C 160.527344 129.425781 160.480469 130.039062 160.542969 130.664062 C 160.605469 131.285156 160.773438 131.878906 161.042969 132.445312 C 161.316406 133.011719 161.675781 133.511719 162.125 133.949219 C 162.570312 134.390625 163.082031 134.738281 163.652344 135 C 163.328125 134.976562 163.007812 134.929688 162.695312 134.847656 C 162.355469 134.761719 162.023438 134.644531 161.707031 134.492188 C 161.390625 134.339844 161.089844 134.160156 160.808594 133.949219 C 160.527344 133.738281 160.265625 133.503906 160.03125 133.242188 C 159.796875 132.980469 159.589844 132.699219 159.40625 132.398438 C 159.226562 132.097656 159.078125 131.78125 158.960938 131.449219 C 158.84375 131.117188 158.757812 130.777344 158.707031 130.429688 C 158.65625 130.082031 158.640625 129.734375 158.660156 129.382812 C 158.675781 129.03125 158.730469 128.6875 158.816406 128.347656" fill-rule="evenodd"/><path fill="#361D06" d="M 166.390625 164.136719 C 166.089844 163.996094 165.804688 163.824219 165.539062 163.625 C 165.269531 163.429688 165.023438 163.207031 164.800781 162.960938 C 164.578125 162.710938 164.378906 162.445312 164.207031 162.160156 C 164.035156 161.875 163.894531 161.578125 163.78125 161.261719 C 163.667969 160.949219 163.589844 160.628906 163.539062 160.300781 C 163.492188 159.96875 163.476562 159.640625 163.492188 159.308594 C 163.507812 158.972656 163.554688 158.648438 163.636719 158.324219 C 163.71875 158 163.828125 157.6875 163.972656 157.386719 C 164.101562 157.109375 164.253906 156.847656 164.433594 156.597656 C 164.28125 157.171875 164.234375 157.753906 164.285156 158.34375 C 164.339844 158.933594 164.488281 159.5 164.742188 160.035156 C 164.992188 160.574219 165.328125 161.050781 165.746094 161.472656 C 166.164062 161.894531 166.644531 162.230469 167.179688 162.484375 C 167.71875 162.734375 168.28125 162.890625 168.871094 162.945312 C 169.464844 163 170.046875 162.953125 170.621094 162.804688 C 171.195312 162.65625 171.730469 162.414062 172.21875 162.078125 C 172.710938 161.742188 173.128906 161.332031 173.472656 160.851562 C 173.398438 161.148438 173.300781 161.433594 173.171875 161.710938 C 173.027344 162.011719 172.859375 162.296875 172.660156 162.566406 C 172.460938 162.832031 172.238281 163.078125 171.992188 163.300781 C 171.742188 163.523438 171.476562 163.722656 171.191406 163.890625 C 170.90625 164.0625 170.605469 164.203125 170.292969 164.316406 C 169.980469 164.429688 169.65625 164.507812 169.328125 164.558594 C 168.996094 164.605469 168.667969 164.625 168.332031 164.609375 C 168 164.589844 167.671875 164.542969 167.347656 164.460938 C 167.027344 164.382812 166.714844 164.269531 166.414062 164.128906" fill-rule="evenodd"/><path fill="#361D06" d="M 187.375 114.761719 C 187.707031 114.804688 188.03125 114.882812 188.34375 114.988281 C 188.660156 115.097656 188.960938 115.234375 189.25 115.402344 C 189.539062 115.570312 189.808594 115.765625 190.058594 115.984375 C 190.304688 116.207031 190.53125 116.449219 190.734375 116.714844 C 190.9375 116.980469 191.109375 117.261719 191.257812 117.5625 C 191.402344 117.859375 191.519531 118.171875 191.605469 118.492188 C 191.6875 118.816406 191.742188 119.140625 191.761719 119.472656 C 191.78125 119.804688 191.769531 120.136719 191.726562 120.46875 C 191.683594 120.777344 191.613281 121.078125 191.519531 121.375 C 191.492188 120.78125 191.367188 120.210938 191.140625 119.660156 C 190.910156 119.113281 190.597656 118.617188 190.195312 118.179688 C 189.796875 117.742188 189.332031 117.382812 188.804688 117.109375 C 188.277344 116.832031 187.71875 116.652344 187.128906 116.574219 C 186.542969 116.492188 185.957031 116.515625 185.375 116.640625 C 184.792969 116.765625 184.25 116.988281 183.746094 117.304688 C 183.242188 117.621094 182.808594 118.011719 182.441406 118.480469 C 182.078125 118.949219 181.800781 119.464844 181.617188 120.03125 C 181.605469 119.726562 181.617188 119.425781 181.65625 119.125 C 181.703125 118.792969 181.777344 118.472656 181.886719 118.15625 C 181.996094 117.839844 182.132812 117.539062 182.300781 117.253906 C 182.472656 116.964844 182.664062 116.695312 182.886719 116.445312 C 183.105469 116.195312 183.351562 115.972656 183.617188 115.769531 C 183.882812 115.566406 184.164062 115.394531 184.464844 115.25 C 184.765625 115.101562 185.074219 114.988281 185.398438 114.902344 C 185.71875 114.816406 186.046875 114.765625 186.378906 114.746094 C 186.714844 114.722656 187.046875 114.734375 187.375 114.78125" fill-rule="evenodd"/><path fill="#361D06" d="M 197.511719 133.902344 C 197.148438 134.101562 196.761719 134.222656 196.351562 134.269531 C 195.945312 134.316406 195.539062 134.285156 195.144531 134.171875 C 194.746094 134.058594 194.386719 133.871094 194.0625 133.617188 C 193.738281 133.363281 193.476562 133.054688 193.277344 132.695312 C 193.183594 132.53125 193.109375 132.355469 193.046875 132.179688 C 193.28125 132.457031 193.554688 132.691406 193.867188 132.875 C 194.183594 133.058594 194.519531 133.183594 194.875 133.25 C 195.234375 133.316406 195.59375 133.324219 195.953125 133.265625 C 196.3125 133.207031 196.652344 133.085938 196.972656 132.910156 C 197.289062 132.734375 197.570312 132.507812 197.808594 132.234375 C 198.046875 131.960938 198.234375 131.652344 198.367188 131.3125 C 198.496094 130.972656 198.566406 130.621094 198.578125 130.257812 C 198.585938 129.894531 198.53125 129.539062 198.417969 129.195312 C 198.539062 129.339844 198.644531 129.496094 198.734375 129.660156 C 198.933594 130.019531 199.058594 130.40625 199.101562 130.816406 C 199.148438 131.222656 199.117188 131.625 199.003906 132.023438 C 198.890625 132.417969 198.703125 132.777344 198.449219 133.101562 C 198.191406 133.425781 197.886719 133.6875 197.523438 133.886719" fill-rule="evenodd"/><path fill="#361D06" d="M 186.398438 154.269531 C 186.289062 154.582031 186.152344 154.882812 185.984375 155.171875 C 185.816406 155.460938 185.621094 155.726562 185.398438 155.976562 C 185.175781 156.226562 184.933594 156.453125 184.667969 156.652344 C 184.402344 156.855469 184.121094 157.027344 183.820312 157.171875 C 183.519531 157.320312 183.210938 157.433594 182.886719 157.519531 C 182.5625 157.605469 182.234375 157.65625 181.902344 157.675781 C 181.570312 157.695312 181.238281 157.683594 180.910156 157.640625 C 180.578125 157.59375 180.253906 157.519531 179.941406 157.410156 C 179.652344 157.308594 179.371094 157.183594 179.105469 157.035156 C 179.691406 157.125 180.277344 157.109375 180.859375 156.996094 C 181.441406 156.878906 181.988281 156.667969 182.496094 156.359375 C 183.003906 156.054688 183.445312 155.667969 183.820312 155.207031 C 184.191406 154.746094 184.476562 154.234375 184.671875 153.675781 C 184.863281 153.113281 184.957031 152.535156 184.949219 151.941406 C 184.9375 151.351562 184.828125 150.777344 184.617188 150.222656 C 184.40625 149.667969 184.109375 149.164062 183.722656 148.714844 C 183.335938 148.261719 182.882812 147.894531 182.363281 147.601562 C 182.667969 147.648438 182.964844 147.71875 183.253906 147.820312 C 183.570312 147.929688 183.871094 148.066406 184.160156 148.234375 C 184.445312 148.402344 184.714844 148.597656 184.964844 148.820312 C 185.214844 149.039062 185.441406 149.28125 185.640625 149.546875 C 185.84375 149.8125 186.019531 150.09375 186.164062 150.394531 C 186.308594 150.695312 186.425781 151.003906 186.511719 151.328125 C 186.59375 151.648438 186.648438 151.976562 186.667969 152.308594 C 186.6875 152.640625 186.675781 152.972656 186.628906 153.300781 C 186.585938 153.632812 186.507812 153.953125 186.398438 154.269531" fill-rule="evenodd"/><path fill="#FFD78C" d="M 195.238281 168.640625 L 190.933594 158.699219 C 190.175781 159.824219 189.257812 160.800781 188.175781 161.621094 C 188.054688 161.710938 187.933594 161.800781 187.816406 161.886719 L 191.089844 169.539062 C 192.480469 169.257812 193.863281 168.957031 195.238281 168.632812"/><path fill="#E6E6E6" d="M 201.140625 182.273438 L 196.703125 172.027344 C 195.328125 172.351562 193.941406 172.660156 192.546875 172.949219 L 196.90625 183.097656 C 198.316406 182.84375 199.726562 182.566406 201.140625 182.261719"/><path fill="#FFD78C" d="M 224.085938 212.257812 C 214.941406 211.988281 209.890625 202.472656 209.890625 202.472656 L 202.613281 185.671875 C 201.203125 185.984375 199.789062 186.269531 198.367188 186.53125 L 205.992188 204.351562 C 209.179688 211.800781 214.480469 215.675781 222.601562 212.804688 C 223.097656 212.628906 223.59375 212.449219 224.085938 212.269531"/><g fill="#F0892E"><g><g><path d="M 3.078125 -26.640625 L 22.34375 -26.640625 C 23.769531 -25.640625 24.484375 -24.734375 24.484375 -23.921875 C 24.484375 -23.242188 24.1875 -22.03125 23.59375 -20.28125 L 11.578125 -20.28125 L 11.578125 -15.953125 L 20.921875 -16.609375 C 22.648438 -15.722656 23.515625 -14.765625 23.515625 -13.734375 C 23.515625 -12.910156 22.9375 -12.039062 21.78125 -11.125 L 11.578125 -10.40625 L 11.578125 -0.78125 C 8.984375 -0.0390625 7.28125 0.328125 6.46875 0.328125 C 4.269531 0.328125 3.140625 -0.472656 3.078125 -2.078125 Z M 3.078125 -26.640625" transform="translate(91.524 266.27)"/></g></g></g><g fill="#F0892E"><g><g><path d="M 3.078125 -1.90625 L 3.078125 -25.4375 C 5.359375 -26.507812 6.988281 -27.046875 7.96875 -27.046875 C 9.675781 -26.960938 10.851562 -26.179688 11.5 -24.703125 L 11.5 -1.546875 C 9.28125 -0.359375 7.625 0.234375 6.53125 0.234375 C 4.851562 0.234375 3.703125 -0.476562 3.078125 -1.90625 Z M 3.078125 -1.90625" transform="translate(115.657 266.27)"/></g></g></g><g fill="#F0892E"><g><g><path d="M 4.921875 -26.65625 L 27.9375 -26.65625 L 14.453125 -6.25 L 25.953125 -6.25 C 27.066406 -4.363281 27.632812 -3.078125 27.65625 -2.390625 C 27.65625 -1.523438 26.734375 -0.632812 24.890625 0.28125 L 0.78125 0.28125 L 14.25 -20.3125 L 3.5625 -20.28125 C 2.4375 -22.164062 1.875 -23.421875 1.875 -24.046875 C 1.894531 -25.242188 2.910156 -26.113281 4.921875 -26.65625 Z M 4.921875 -26.65625" transform="translate(129.178 266.27)"/></g></g></g><g fill="#F0892E"><g><g><path d="M 4.921875 -26.65625 L 27.9375 -26.65625 L 14.453125 -6.25 L 25.953125 -6.25 C 27.066406 -4.363281 27.632812 -3.078125 27.65625 -2.390625 C 27.65625 -1.523438 26.734375 -0.632812 24.890625 0.28125 L 0.78125 0.28125 L 14.25 -20.3125 L 3.5625 -20.28125 C 2.4375 -22.164062 1.875 -23.421875 1.875 -24.046875 C 1.894531 -25.242188 2.910156 -26.113281 4.921875 -26.65625 Z M 4.921875 -26.65625" transform="translate(157.983 266.27)"/></g></g></g><g fill="#999"><g><g><path d="M 10.328125 -11.25 L 10.328125 -5.5625 L 13.71875 -5.5625 C 14.84375 -5.59375 15.59375 -5.953125 15.96875 -6.640625 C 16.34375 -7.335938 16.539062 -8.171875 16.5625 -9.140625 C 16.539062 -9.660156 16.296875 -10.148438 15.828125 -10.609375 C 15.367188 -11.066406 14.78125 -11.332031 14.0625 -11.40625 Z M 10.328125 -16.078125 L 13.53125 -16.25 C 14.207031 -16.28125 14.710938 -16.554688 15.046875 -17.078125 C 15.378906 -17.609375 15.546875 -18.203125 15.546875 -18.859375 C 15.546875 -19.503906 15.34375 -19.96875 14.9375 -20.25 C 14.53125 -20.53125 13.679688 -20.675781 12.390625 -20.6875 L 10.328125 -20.6875 Z M 3.046875 -26.515625 L 12.421875 -26.515625 C 16.785156 -26.472656 19.695312 -25.664062 21.15625 -24.09375 C 22.625 -22.519531 23.359375 -20.921875 23.359375 -19.296875 C 23.359375 -17.835938 23.09375 -16.601562 22.5625 -15.59375 C 22.039062 -14.59375 21.671875 -14.035156 21.453125 -13.921875 C 21.828125 -13.921875 22.453125 -13.453125 23.328125 -12.515625 C 24.210938 -11.585938 24.65625 -10.285156 24.65625 -8.609375 C 24.65625 -6.953125 23.910156 -5.082031 22.421875 -3 C 20.929688 -0.925781 18.0625 0.140625 13.8125 0.203125 L 3.046875 0.203125 Z M 3.046875 -26.515625" transform="translate(191.97 266.27)"/></g></g></g><g fill="#999"><g><g><path d="M 17.265625 -25.421875 C 19.585938 -26.347656 21.195312 -26.8125 22.09375 -26.8125 C 23.882812 -26.8125 25.066406 -26.035156 25.640625 -24.484375 L 25.640625 -12.21875 C 25.640625 -7.4375 24.382812 -4.175781 21.875 -2.4375 C 19.363281 -0.707031 16.769531 0.15625 14.09375 0.15625 C 9.59375 0.15625 6.613281 -0.882812 5.15625 -2.96875 C 3.695312 -5.050781 2.867188 -8.113281 2.671875 -12.15625 L 1.984375 -24.953125 C 4.160156 -26.191406 5.785156 -26.8125 6.859375 -26.8125 C 8.628906 -26.8125 9.8125 -26.035156 10.40625 -24.484375 L 11.015625 -12.296875 C 11.171875 -9.492188 11.453125 -7.832031 11.859375 -7.3125 C 12.265625 -6.789062 13.007812 -6.53125 14.09375 -6.53125 C 15.332031 -6.53125 16.171875 -6.757812 16.609375 -7.21875 C 17.046875 -7.6875 17.265625 -9.351562 17.265625 -12.21875 Z M 17.265625 -25.421875" transform="translate(216.306 266.27)"/></g></g></g><g fill="#999"><g><g><path d="M 4.921875 -26.65625 L 27.9375 -26.65625 L 14.453125 -6.25 L 25.953125 -6.25 C 27.066406 -4.363281 27.632812 -3.078125 27.65625 -2.390625 C 27.65625 -1.523438 26.734375 -0.632812 24.890625 0.28125 L 0.78125 0.28125 L 14.25 -20.3125 L 3.5625 -20.28125 C 2.4375 -22.164062 1.875 -23.421875 1.875 -24.046875 C 1.894531 -25.242188 2.910156 -26.113281 4.921875 -26.65625 Z M 4.921875 -26.65625" transform="translate(243.385 266.27)"/></g></g></g><g fill="#999"><g><g><path d="M 4.921875 -26.65625 L 27.9375 -26.65625 L 14.453125 -6.25 L 25.953125 -6.25 C 27.066406 -4.363281 27.632812 -3.078125 27.65625 -2.390625 C 27.65625 -1.523438 26.734375 -0.632812 24.890625 0.28125 L 0.78125 0.28125 L 14.25 -20.3125 L 3.5625 -20.28125 C 2.4375 -22.164062 1.875 -23.421875 1.875 -24.046875 C 1.894531 -25.242188 2.910156 -26.113281 4.921875 -26.65625 Z M 4.921875 -26.65625" transform="translate(272.19 266.27)"/></g></g></g></svg>